<?xml version="1.0" encoding="UTF-8" standalone="no"?><!DOCTYPE svg PUBLIC "-//W3C//DTD SVG 1.1//EN" "http://www.w3.org/Graphics/SVG/1.1/DTD/svg11.dtd"><svg width="100%" height="100%" viewBox="0 0 40 40" version="1.1" xmlns="http://www.w3.org/2000/svg" xmlns:xlink="http://www.w3.org/1999/xlink" xml:space="preserve" xmlns:serif="http://www.serif.com/" style="fill-rule:evenodd;clip-rule:evenodd;stroke-linejoin:round;stroke-miterlimit:2;"><g id="ico-outlook"><path d="M24.865,19.048l-0,10.522l13.24,-0c-0,-0 1.937,-0.269 1.776,-2.811l0.01,-13.746l-9.698,6.561c-0,-0 -2.745,2.216 -5.328,-0.526" style="fill:#1c71b7;fill-rule:nonzero;"/><path d="M24.865,8.119l13.348,-0c-0,-0 1.57,-0.108 1.57,1.603l-12.065,8.037l-2.853,-1.818l-0,-7.822Z" style="fill:#1c71b7;fill-rule:nonzero;"/><path d="M11.763,26.75c-2.944,0 -5.33,-3.176 -5.33,-7.095c-0,-3.919 2.386,-7.095 5.33,-7.095c2.944,-0 5.33,3.176 5.33,7.095c-0,3.919 -2.386,7.095 -5.33,7.095m-11.763,-22.711l-0,31.373l23.412,4.588l-0,-40l-23.412,4.039Z" style="fill:#1c71b7;fill-rule:nonzero;"/><path d="M11.7,15.44c-1.416,-0 -2.563,1.882 -2.563,4.204c0,2.322 1.147,4.204 2.563,4.204c1.415,-0 2.563,-1.882 2.563,-4.204c0,-2.322 -1.148,-4.204 -2.563,-4.204" style="fill:#1c71b7;fill-rule:nonzero;"/></g></svg>