<svg xmlns="http://www.w3.org/2000/svg" xml:space="preserve" width="30" height="30" style="fill-rule:evenodd;clip-rule:evenodd;stroke-linejoin:round;stroke-miterlimit:2"><path d="M0 17.474h-3.989v-7.112c0-1.653-.577-2.782-2.021-2.782-1.102 0-1.758.761-2.047 1.496-.104.262-.131.63-.131.998v7.4h-3.989V8.735c0-1.601-.052-2.939-.105-4.094h3.464l.184 1.785h.079c.525-.84 1.811-2.074 3.963-2.074C-1.968 4.352 0 6.111 0 9.89v7.584ZM-16.585 3.066c-1.259 0-2.073-.892-2.073-1.994 0-1.128.84-1.994 2.125-1.994 1.286 0 2.074.866 2.1 1.994 0 1.102-.814 1.994-2.152 1.994m2.021 14.408h-3.989V4.641h3.989v12.833ZM2.582-6.263h-23.671a2.993 2.993 0 0 0-2.989 2.999v24.002a2.994 2.994 0 0 0 2.989 2.999H2.582a2.994 2.994 0 0 0 2.989-2.999V-3.264a2.993 2.993 0 0 0-2.989-2.999" style="fill:#fff;fill-rule:nonzero" transform="translate(24.078 6.26)"/></svg>