<?xml version="1.0" encoding="UTF-8" standalone="no"?><!DOCTYPE svg PUBLIC "-//W3C//DTD SVG 1.1//EN" "http://www.w3.org/Graphics/SVG/1.1/DTD/svg11.dtd"><svg width="100%" height="100%" viewBox="0 0 33 41" version="1.1" xmlns="http://www.w3.org/2000/svg" xmlns:xlink="http://www.w3.org/1999/xlink" xml:space="preserve" xmlns:serif="http://www.serif.com/" style="fill-rule:evenodd;clip-rule:evenodd;stroke-linejoin:round;stroke-miterlimit:2;"><g id="ico-apple"><path d="M17.992,4.3c2.628,-3.464 6.282,-3.481 6.282,-3.481c-0,-0 0.543,3.257 -2.067,6.394c-2.788,3.35 -5.957,2.802 -5.957,2.802c-0,-0 -0.595,-2.635 1.742,-5.715" style="fill:#9a9a9a;"/><path d="M16.584,12.296c1.352,0 3.861,-1.859 7.128,-1.859c5.622,0 7.834,4.001 7.834,4.001c0,0 -4.326,2.212 -4.326,7.578c0,6.055 5.389,8.141 5.389,8.141c0,0 -3.767,10.603 -8.855,10.603c-2.338,0 -4.154,-1.575 -6.617,-1.575c-2.509,0 -4.999,1.634 -6.621,1.634c-4.646,0 -10.516,-10.058 -10.516,-18.143c0,-7.954 4.968,-12.127 9.628,-12.127c3.03,0 5.381,1.747 6.956,1.747" style="fill:#9a9a9a;"/></g></svg>