<svg xmlns="http://www.w3.org/2000/svg" xml:space="preserve" width="30" height="30" style="fill-rule:evenodd;clip-rule:evenodd;stroke-linejoin:round;stroke-miterlimit:2"><path d="M0-30c-4.074 0-4.585.017-6.184.09-1.597.073-2.687.327-3.642.697a7.355 7.355 0 0 0-2.656 1.731 7.364 7.364 0 0 0-1.731 2.656c-.37.955-.624 2.045-.697 3.642-.073 1.599-.09 2.11-.09 6.184s.017 4.585.09 6.184c.073 1.597.327 2.687.697 3.642a7.364 7.364 0 0 0 1.731 2.656A7.355 7.355 0 0 0-9.826-.787c.955.37 2.045.624 3.642.697C-4.585-.017-4.074 0 0 0s4.585-.017 6.184-.09c1.597-.073 2.687-.327 3.642-.697a7.364 7.364 0 0 0 2.656-1.731 7.364 7.364 0 0 0 1.731-2.656c.37-.955.624-2.045.697-3.642.073-1.599.09-2.11.09-6.184s-.017-4.585-.09-6.184c-.073-1.597-.327-2.687-.697-3.642a7.364 7.364 0 0 0-1.731-2.656 7.364 7.364 0 0 0-2.656-1.731c-.955-.37-2.045-.624-3.642-.697C4.585-29.983 4.074-30 0-30m0 2.703c4.005 0 4.48.015 6.061.087 1.463.067 2.257.311 2.786.517.7.272 1.199.597 1.724 1.122.525.525.85 1.024 1.122 1.724.206.529.45 1.323.517 2.786.072 1.581.087 2.056.087 6.061s-.015 4.48-.087 6.061c-.067 1.463-.311 2.257-.517 2.786a4.644 4.644 0 0 1-1.122 1.724 4.644 4.644 0 0 1-1.724 1.122c-.529.206-1.323.45-2.786.517-1.581.072-2.056.087-6.061.087s-4.48-.015-6.061-.087c-1.463-.067-2.257-.311-2.786-.517a4.644 4.644 0 0 1-1.724-1.122 4.644 4.644 0 0 1-1.122-1.724c-.206-.529-.45-1.323-.517-2.786-.072-1.581-.087-2.056-.087-6.061s.015-4.48.087-6.061c.067-1.463.311-2.257.517-2.786.272-.7.597-1.199 1.122-1.724a4.644 4.644 0 0 1 1.724-1.122c.529-.206 1.323-.45 2.786-.517 1.581-.072 2.056-.087 6.061-.087" style="fill:#fff;fill-rule:nonzero" transform="translate(15 30)"/><path d="M0 10A5 5 0 1 1 .001-.001 5 5 0 0 1 0 10M0-2.703a7.703 7.703 0 1 0 0 15.407A7.703 7.703 0 0 0 0-2.703" style="fill:#fff;fill-rule:nonzero" transform="translate(15 10)"/><path d="M-1.8-1.8a1.8 1.8 0 1 0 0 3.6 1.8 1.8 0 0 0 0-3.6" style="fill:#fff;fill-rule:nonzero" transform="matrix(0 -1 -1 0 23 5.19)"/></svg>