<svg xmlns="http://www.w3.org/2000/svg" xml:space="preserve" width="30" height="30" style="fill-rule:evenodd;clip-rule:evenodd;stroke-linejoin:round;stroke-miterlimit:2"><path d="M0-3.456a16.544 16.544 0 0 0-1.999-.974c-1.37-.55-2.79-.919-4.242-1.175a26.52 26.52 0 0 0-3.051-.358 28.617 28.617 0 0 0-3.195-.016c-1.221.063-2.433.197-3.628.455-.442.096-.878.216-1.314.332a1.392 1.392 0 0 1-1.8-1.302 1.362 1.362 0 0 1 .926-1.337c.422-.139.855-.249 1.288-.349a24.156 24.156 0 0 1 3.256-.501c1.164-.106 2.33-.14 3.496-.107 2.875.082 5.693.503 8.421 1.444 1.112.384 2.182.861 3.2 1.454.363.212.606.51.699.923.022.098.027.199.04.299A1.391 1.391 0 0 1 0-3.456M-.177.787c-.332.544-1.021.714-1.593.391-.323-.182-.643-.372-.973-.541C-4.257-.134-5.862-.635-7.528-.95a21.522 21.522 0 0 0-3.953-.367c-1.713.007-3.468.219-5.183.728a1.235 1.235 0 0 1-.833-.022 1.157 1.157 0 0 1-.719-1.099c.016-.493.316-.922.791-1.067.484-.148.974-.276 1.467-.385a20.54 20.54 0 0 1 3.69-.46A22.688 22.688 0 0 1-4.429-2.56c1.29.413 2.523.954 3.688 1.647l.173.105C.04-.437.113.311-.177.787m-1.835 4.081a.922.922 0 0 1-1.165.367c-.086-.038-.166-.089-.248-.137-1.587-.941-3.3-1.524-5.121-1.802a17.587 17.587 0 0 0-3.369-.186 24.34 24.34 0 0 0-4.326.575 2.121 2.121 0 0 1-.439.062.894.894 0 0 1-.892-.732c-.082-.45.141-.871.553-1.037.087-.035.18-.057.272-.078a26.24 26.24 0 0 1 3.535-.561c.665-.056 1.332-.078 1.999-.115 1.972.02 3.901.287 5.774.918a15.34 15.34 0 0 1 2.955 1.357c.082.049.164.096.239.153a.926.926 0 0 1 .233 1.216m-6.853-21.596c-8.285 0-15 6.716-15 15 0 8.285 6.715 15 15 15 8.284 0 15-6.715 15-15 0-8.284-6.716-15-15-15" style="fill:#fff" transform="translate(23.87 16.73)"/></svg>