<?xml version="1.0" encoding="UTF-8" standalone="no"?><!DOCTYPE svg PUBLIC "-//W3C//DTD SVG 1.1//EN" "http://www.w3.org/Graphics/SVG/1.1/DTD/svg11.dtd"><svg width="100%" height="100%" viewBox="0 0 54 40" version="1.1" xmlns="http://www.w3.org/2000/svg" xmlns:xlink="http://www.w3.org/1999/xlink" xml:space="preserve" xmlns:serif="http://www.serif.com/" style="fill-rule:evenodd;clip-rule:evenodd;stroke-linejoin:round;stroke-miterlimit:2;"><g id="ico-gmail"><path d="M3.636,40l8.485,0l0,-20.607l-12.121,-9.091l0,26.062c0,2.008 1.628,3.636 3.636,3.636" style="fill:#4285f4;fill-rule:nonzero;"/><path d="M41.212,40l8.486,0c2.008,0 3.636,-1.628 3.636,-3.636l0,-26.062l-12.122,9.091l0,20.607Z" style="fill:#34a853;fill-rule:nonzero;"/><path d="M41.212,3.637l0,15.756l12.122,-9.091l0,-4.847c0,-3.012 -2.442,-5.454 -5.455,-5.454c-1.18,0 -2.328,0.382 -3.272,1.091l-3.395,2.545Z" style="fill:#fbbc04;fill-rule:nonzero;"/><path d="M12.122,19.393l-0,-15.756l14.545,10.909l14.546,-10.909l-0,15.756l-14.546,10.909l-14.545,-10.909Z" style="fill:#ea4335;fill-rule:nonzero;"/><path d="M0,5.455l0,4.847l12.122,9.091l0,-15.756l-3.395,-2.546c-2.41,-1.807 -5.829,-1.319 -7.636,1.091c-0.708,0.944 -1.091,2.093 -1.091,3.273" style="fill:#c5221f;fill-rule:nonzero;"/></g></svg>