<svg xmlns="http://www.w3.org/2000/svg" xml:space="preserve" width="43" height="30" style="fill-rule:evenodd;clip-rule:evenodd;stroke-linejoin:round;stroke-miterlimit:2"><path d="M0 12.662V0l11.129 6.331L0 12.662ZM24.756-3.984a5.353 5.353 0 0 0-3.765-3.79c-3.321-.895-16.636-.895-16.636-.895s-13.315 0-16.636.895a5.35 5.35 0 0 0-3.764 3.79c-.89 3.342-.89 10.315-.89 10.315s0 6.973.89 10.315a5.347 5.347 0 0 0 3.764 3.789c3.321.896 16.636.896 16.636.896s13.315 0 16.636-.896a5.35 5.35 0 0 0 3.765-3.789c.89-3.342.89-10.315.89-10.315s0-6.973-.89-10.315" style="fill:#fff;fill-rule:nonzero" transform="translate(16.94 8.66)"/></svg>