<?xml version="1.0" encoding="UTF-8" standalone="no"?><!DOCTYPE svg PUBLIC "-//W3C//DTD SVG 1.1//EN" "http://www.w3.org/Graphics/SVG/1.1/DTD/svg11.dtd"><svg width="100%" height="100%" viewBox="0 0 180 70" version="1.1" xmlns="http://www.w3.org/2000/svg" xmlns:xlink="http://www.w3.org/1999/xlink" xml:space="preserve" xmlns:serif="http://www.serif.com/" style="fill-rule:evenodd;clip-rule:evenodd;stroke-linejoin:round;stroke-miterlimit:2;"><g id="img-logo"><path d="M55.845,32.736l0.855,-4.163l-7.359,0l0,-5.686l-5.166,0.781l0,16.984c0,5.872 2.304,7.619 8.585,7.619l2.751,0l0.854,-4.126l-3.233,0c-2.862,0 -3.791,-0.706 -3.791,-3.827l0,-7.582l6.504,0Zm-25.384,-0.706c3.568,0 4.832,1.412 4.832,5.612l0,1.561c0,4.088 -1.264,5.5 -4.906,5.5c-3.642,0 -4.906,-1.412 -4.906,-5.538l-0,-2.118c-0,-3.754 1.264,-5.017 4.98,-5.017m-10.109,-11.113l-0,18.248c-0,6.764 3.122,9.589 9.924,9.589c7.061,0 10.183,-2.75 10.183,-9.551l-0,-1.747c-0,-6.392 -2.899,-9.514 -9.217,-9.514c-2.007,0 -4.2,0.409 -5.686,1.561l-0,-9.403l-5.204,0.817Zm52.737,18.063c0,3.493 -1.226,4.571 -4.757,4.571c-3.976,0 -4.757,-1.375 -4.757,-5.426l0,-0.632c0,-4.014 0.706,-5.463 4.757,-5.463c3.977,0 4.757,1.412 4.757,5.5l0,1.45Zm-4.757,-11.038c-6.801,0 -9.923,2.861 -9.923,9.402l0,1.004c0,6.206 2.714,9.217 9.106,9.217c2.044,0 4.088,-0.372 5.537,-1.524l0,0.743c0,3.494 -1.524,4.646 -5.091,4.646l-2.136,0c-1.222,0.021 -1.776,0.238 -2.513,1.444l-0.004,-0.001c-6.127,9.697 -16.766,15.623 -28.361,15.623c-18.499,0 -33.548,-15.05 -33.548,-33.549c0,-18.499 15.049,-33.549 33.548,-33.549c12.994,-0 24.815,7.525 30.346,19.236l1.541,-0c-5.636,-12.54 -18.131,-20.634 -31.887,-20.634c-19.269,-0 -34.947,15.677 -34.947,34.947c0,19.269 15.678,34.946 34.947,34.946c11.333,-0 21.791,-5.433 28.311,-14.449l5,-0c6.578,-0 9.96,-2.49 9.96,-8.846l-0,-9.588c-0,-6.318 -3.233,-9.068 -9.886,-9.068" style="fill:#fff;fill-rule:nonzero;"/><path d="M120.57,38.934l0,-1.443c0,-4.617 1.578,-6.254 6.029,-6.254l3.76,-0l0.359,-1.558l-4.119,-0c-5.31,-0 -7.677,2.41 -7.677,7.812l0,1.443c0,5.403 2.367,7.812 7.677,7.812l3.805,-0l0.359,-1.558l-4.164,-0c-4.339,-0 -6.029,-1.754 -6.029,-6.254m-6.157,2.885c0,2.522 -1.304,3.459 -4.811,3.459l-0.676,-0c-3.403,-0 -4.856,-1.102 -4.856,-3.684l0,-0.271c0,-2.803 1.371,-3.999 4.585,-3.999l0.271,-0c3.846,-0 5.487,1.156 5.487,3.864l0,0.631Zm-5.712,-12.14l-4.347,-0l-0.359,1.558l4.706,-0c4.271,-0 5.712,1.146 5.712,4.541l0,1.642c-1.067,-1.069 -2.954,-1.61 -5.622,-1.61c-4.256,-0 -6.325,1.804 -6.325,5.513l0,0.271c0,3.478 2.052,5.242 6.099,5.242l1.083,-0c4.226,-0 6.369,-1.764 6.369,-5.242l0,-5.816c0,-4.332 -2.12,-6.099 -7.316,-6.099m48.136,10.382c0,4.018 -1.257,5.307 -5.172,5.307c-3.799,-0 -5.082,-1.339 -5.082,-5.307l0,-10.382l-1.648,-0l0,10.382c0,4.94 1.887,6.865 6.73,6.865c4.812,-0 6.775,-1.989 6.775,-6.865l0,-10.382l-1.603,-0l0,10.382Zm-14.847,-8.824l0.36,-1.558l-7.173,-0l0,-4.455l-1.648,0.294l0,15.264c0,4.348 1.628,5.964 6.009,5.964l2.368,-0l0.3,-1.558l-2.668,-0c-3.302,-0 -4.361,-1.049 -4.361,-4.316l0,-9.635l6.813,-0Zm36.126,15.599l1.604,-0l0,-23.604l-1.604,-0l0,23.604Zm-4.914,-5.017c0,2.489 -1.361,3.459 -4.856,3.459l-0.677,-0c-3.372,-0 -4.811,-1.102 -4.811,-3.684l0,-0.271c0,-2.803 1.372,-3.999 4.586,-3.999l0.27,-0c3.847,-0 5.488,1.156 5.488,3.864l0,0.631Zm-5.758,-12.14l-4.346,-0l-0.36,1.558l4.706,-0c4.305,-0 5.758,1.146 5.758,4.541l0,1.642c-1.067,-1.069 -2.955,-1.61 -5.623,-1.61c-4.256,-0 -6.325,1.804 -6.325,5.513l0,0.271c0,3.478 2.037,5.242 6.055,5.242l1.081,-0c4.256,-0 6.415,-1.764 6.415,-5.242l0,-5.816c0,-4.332 -2.133,-6.099 -7.361,-6.099m-69.126,9.255c0,4.625 -1.535,6.344 -5.667,6.344c-3.91,-0 -5.893,-1.907 -5.893,-5.668l0,-2.299c0,-4.506 1.681,-6.344 5.803,-6.344c4.143,-0 5.757,1.766 5.757,6.299l0,1.668Zm-5.757,-9.525c-5.084,-0 -7.452,2.511 -7.452,7.902l0,14.665l1.604,-0l0,-7.531c1.16,1.508 3.323,2.391 5.938,2.391c5.06,-0 7.317,-2.437 7.317,-7.902l0,-1.668c0,-5.434 -2.285,-7.857 -7.407,-7.857" style="fill:#fff;fill-rule:nonzero;"/></g></svg>